HIERARCHY
ROOT Pelvis
{
	OFFSET 0.000000 0.000000 0.000000
	CHANNELS 6 Xposition Yposition Zposition Xrotation Yrotation Zrotation
	JOINT LeftUpLeg_virtual
	{
		OFFSET 0.000000 0.000000 0.000000
		CHANNELS 3 Xrotation Yrotation Zrotation
		JOINT LeftUpLeg
		{
			OFFSET 18.735201 -5.666702 -4.541200
			CHANNELS 3 Xrotation Yrotation Zrotation
			JOINT LeftLeg
			{
				OFFSET -0.021200 -31.938179 0.493100
				CHANNELS 3 Xrotation Yrotation Zrotation
				JOINT LeftFoot
				{
					OFFSET 0.021200 -31.938179 -4.336299
					CHANNELS 3 Xrotation Yrotation Zrotation
					JOINT LeftToeBase
					{
						OFFSET 0.943001 -26.722000 15.023500
						CHANNELS 3 Xrotation Yrotation Zrotation
						End Site
						{
							OFFSET 0 0 0
						}
					}
				}
			}
		}
	}
	JOINT RightUpLeg_virtual
	{
		OFFSET 0.000000 0.000000 0.000000
		CHANNELS 3 Xrotation Yrotation Zrotation
		JOINT RightUpLeg
		{
			OFFSET -18.735201 -5.666702 -4.541200
			CHANNELS 3 Xrotation Yrotation Zrotation
			JOINT RightLeg
			{
				OFFSET 0.018946 -31.938133 0.493100
				CHANNELS 3 Xrotation Yrotation Zrotation
				JOINT RightFoot
				{
					OFFSET -0.018946 -31.938126 -4.336299
					CHANNELS 3 Xrotation Yrotation Zrotation
					JOINT RightToeBase
					{
						OFFSET -0.943001 -26.722004 15.023500
						CHANNELS 3 Xrotation Yrotation Zrotation
						End Site
						{
							OFFSET 0 0 0
						}
					}
				}
			}
		}
	}
	JOINT Hips_virtual
	{
		OFFSET 0.000000 0.000000 0.000000
		CHANNELS 3 Xrotation Yrotation Zrotation
		JOINT Hips
		{
			OFFSET -0.000000 -0.000000 -0.000000
			CHANNELS 3 Xrotation Yrotation Zrotation
			JOINT Spine
			{
				OFFSET 0.000000 10.199997 -0.299500
				CHANNELS 3 Xrotation Yrotation Zrotation
				JOINT Spine1
				{
					OFFSET 0.000000 11.900002 -1.516600
					CHANNELS 3 Xrotation Yrotation Zrotation
					JOINT Spine2
					{
						OFFSET 0.000000 13.600006 -2.842500
						CHANNELS 3 Xrotation Yrotation Zrotation
						JOINT Neck_virtual
						{
							OFFSET 0.000000 0.000000 0.000000
							CHANNELS 3 Xrotation Yrotation Zrotation
							JOINT Neck
							{
								OFFSET 0.000000 9.624100 -2.890100
								CHANNELS 3 Xrotation Yrotation Zrotation
								JOINT Head
								{
									OFFSET 0.000000 14.068802 -1.351900
									CHANNELS 3 Xrotation Yrotation Zrotation
									End Site
									{
										OFFSET 0 0 0
									}
								}
							}
						}
						JOINT LeftShoulder_virtual
						{
							OFFSET 0.000000 0.000000 0.000000
							CHANNELS 3 Xrotation Yrotation Zrotation
							JOINT LeftShoulder
							{
								OFFSET 15.263000 10.923401 -0.547700
								CHANNELS 3 Xrotation Yrotation Zrotation
								JOINT LeftArm
								{
									OFFSET 25.438599 -2.830597 -13.032500
									CHANNELS 3 Xrotation Yrotation Zrotation
									JOINT LeftForeArm
									{
										OFFSET 29.960503 0.000000 0.000000
										CHANNELS 3 Xrotation Yrotation Zrotation
										JOINT LeftHand
										{
											OFFSET 27.849251 0.000000 0.000000
											CHANNELS 3 Xrotation Yrotation Zrotation
											End Site
											{
												OFFSET 0 0 0
											}
										}
									}
								}
							}
						}
						JOINT RightShoulder_virtual
						{
							OFFSET 0.000000 0.000000 0.000000
							CHANNELS 3 Xrotation Yrotation Zrotation
							JOINT RightShoulder
							{
								OFFSET -15.263000 10.923401 -0.547700
								CHANNELS 3 Xrotation Yrotation Zrotation
								JOINT RightArm
								{
									OFFSET -25.438599 -2.830597 -13.032500
									CHANNELS 3 Xrotation Yrotation Zrotation
									JOINT RightForeArm
									{
										OFFSET -29.960503 0.000000 0.000000
										CHANNELS 3 Xrotation Yrotation Zrotation
										JOINT RightHand
										{
											OFFSET -27.849251 0.000000 0.000000
											CHANNELS 3 Xrotation Yrotation Zrotation
											End Site
											{
												OFFSET 0 0 0
											}
										}
									}
								}
							}
						}
					}
				}
			}
		}
	}
}
MOTION
Frames: 9
Frame Time: 0.03333333
0.117896 92.242226 4.570999 0.000000 0.000000 0.000000 -0.587398 -0.367419 -0.303435 -13.188857 4.132061 9.763996 30.852883 3.489653 1.412430 -16.133749 2.226938 -10.869437 0.000000 0.000000 0.000000 -0.587398 -0.367419 -0.303435 -14.236707 2.003511 -3.042807 32.071611 -1.420232 -2.856193 -17.040104 -1.511247 6.904514 0.000000 0.000000 0.000000 -0.587398 -0.367419 -0.303435 0.000000 0.000000 0.000000 0.361195 -0.182177 0.255405 -1.750145 -0.199001 0.196420 0.000000 0.000000 0.000000 -1.750109 -0.188404 0.203701 0.187908 -0.079713 -0.167839 0.000000 0.000000 0.000000 -1.750109 -0.188404 0.203701 0.993407 -13.202430 -11.017493 16.778892 -19.384220 -67.597371 -0.000005 -17.727281 0.000000 0.000000 0.000000 0.000000 -1.750109 -0.188404 0.203701 1.651817 9.058837 10.503890 6.412941 25.534621 64.587519 -0.000006 12.370155 -0.000003 0.000000 0.000000 0.000000 
0.174544 92.248093 4.545105 0.000000 0.000000 0.000000 -0.563361 -0.335364 -0.221920 -13.210423 4.220366 9.601923 30.755457 3.427721 1.515575 -16.059146 2.222622 -10.905087 0.000000 0.000000 0.000000 -0.563361 -0.335364 -0.221920 -14.305491 1.953545 -3.253573 32.155568 -1.393180 -2.749230 -17.070055 -1.516575 6.905416 0.000000 0.000000 0.000000 -0.563361 -0.335364 -0.221920 0.000000 0.000000 0.000000 0.389063 -0.140587 0.213108 -1.758987 -0.152911 0.185722 0.000000 0.000000 0.000000 -1.758853 -0.144486 0.191302 0.211914 -0.086508 -0.187144 0.000000 0.000000 0.000000 -1.758853 -0.144486 0.191302 0.994574 -13.331120 -11.067194 16.711226 -19.428789 -67.559395 0.000009 -17.694293 0.000017 0.000000 0.000000 0.000000 -1.758853 -0.144486 0.191302 1.655696 9.081052 10.518683 6.559966 25.463654 64.487320 0.000001 12.345275 0.000018 0.000000 0.000000 0.000000 
0.260151 92.266922 4.522633 0.000000 0.000000 0.000000 -0.564067 -0.358880 -0.141204 -13.137735 4.222257 9.464786 30.625315 3.476291 1.463909 -15.994544 2.209880 -10.887176 0.000000 0.000000 0.000000 -0.564067 -0.358880 -0.141204 -14.337296 1.937261 -3.496087 32.175184 -1.301329 -2.631956 -17.050944 -1.522376 6.915878 0.000000 0.000000 0.000000 -0.564067 -0.358880 -0.141204 0.000000 0.000000 0.000000 0.467851 -0.087173 0.174693 -1.726140 -0.094856 0.195358 0.000000 0.000000 0.000000 -1.725987 -0.088045 0.198933 0.219045 -0.092528 -0.208281 0.000000 0.000000 0.000000 -1.725987 -0.088045 0.198933 0.991735 -13.323548 -11.148005 16.457983 -19.698177 -67.507343 -0.000004 -17.673545 0.000006 0.000000 0.000000 0.000000 -1.725987 -0.088045 0.198933 1.661473 9.155294 10.510906 6.689133 25.490495 64.312993 0.000007 12.254245 -0.000017 0.000000 0.000000 0.000000 
0.373572 92.301071 4.476692 0.000000 0.000000 0.000000 -0.578072 -0.427379 -0.054788 -13.004839 4.129407 9.241002 30.439377 3.704942 1.471289 -15.895717 2.206045 -10.961607 0.000000 0.000000 0.000000 -0.578072 -0.427379 -0.054788 -14.365001 1.959978 -3.756636 32.127868 -1.196707 -2.545595 -16.955379 -1.533581 6.972923 0.000000 0.000000 0.000000 -0.578072 -0.427379 -0.054788 0.000000 0.000000 0.000000 0.596731 -0.014346 0.128419 -1.620710 -0.015913 0.201612 0.000000 0.000000 0.000000 -1.620686 -0.010844 0.202122 0.234670 -0.083231 -0.255491 0.000000 0.000000 0.000000 -1.620686 -0.010844 0.202122 0.989897 -13.432066 -11.270858 15.974706 -19.827780 -67.490110 0.000003 -17.727054 0.000003 0.000000 0.000000 0.000000 -1.620686 -0.010844 0.202122 1.677952 9.285098 10.547347 6.831332 25.636386 64.012048 0.000001 12.156162 -0.000005 0.000000 0.000000 0.000000 
0.509679 92.309898 4.358482 0.000000 0.000000 0.000000 -0.505416 -0.513853 -0.007489 -13.071431 3.650962 8.814141 30.444680 4.413944 1.748167 -15.810908 2.251380 -11.294919 0.000000 0.000000 0.000000 -0.505416 -0.513853 -0.007489 -14.603598 1.654702 -3.946912 32.121116 -0.764434 -2.714544 -16.808141 -1.551206 7.066480 0.000000 0.000000 0.000000 -0.505416 -0.513853 -0.007489 0.000000 0.000000 0.000000 0.792394 0.029345 0.045172 -1.416821 0.032360 0.182690 0.000000 0.000000 0.000000 -1.416967 0.034539 0.181314 0.228242 -0.109213 -0.244901 0.000000 0.000000 0.000000 -1.416967 0.034539 0.181314 0.988384 -13.373516 -11.280129 15.352525 -20.245314 -67.493716 0.000006 -17.915187 0.000005 0.000000 0.000000 0.000000 -1.416967 0.034539 0.181314 1.697832 9.302906 10.690756 6.871395 26.197382 63.484662 0.000006 12.093670 -0.000001 0.000000 0.000000 0.000000 
0.623059 92.290100 4.160358 0.000000 0.000000 0.000000 -0.325806 -0.664737 -0.080878 -13.451960 2.963686 8.542175 30.780456 5.295174 1.971537 -15.814883 2.321314 -11.712590 0.000000 0.000000 0.000000 -0.325806 -0.664737 -0.080878 -15.018882 1.446579 -3.819045 32.047910 -0.410283 -3.121436 -16.529780 -1.578092 7.253020 0.000000 0.000000 0.000000 -0.325806 -0.664737 -0.080878 0.000000 0.000000 0.000000 1.035906 0.050826 -0.044995 -1.126574 0.055725 0.161242 0.000000 0.000000 0.000000 -1.126867 0.056063 0.159081 0.188523 -0.131687 -0.200662 0.000000 0.000000 0.000000 -1.126867 0.056063 0.159081 0.989573 -13.280081 -11.185791 14.662746 -20.827996 -67.491415 0.000002 -18.275453 -0.000002 0.000000 0.000000 0.000000 -1.126867 0.056063 0.159081 1.729814 9.398954 10.871324 6.780480 27.024055 62.846736 -0.000000 12.048642 0.000011 0.000000 0.000000 0.000000 
0.676997 92.217781 3.880066 0.000000 0.000000 0.000000 -0.029520 -1.086856 -0.312280 -14.159413 2.321074 8.682652 31.579496 6.196646 1.832438 -16.035788 2.380379 -11.944993 0.000000 0.000000 0.000000 -0.029520 -1.086856 -0.312280 -15.752061 1.689767 -3.469049 32.032727 -0.411939 -3.260610 -16.087069 -1.571622 7.357689 0.000000 0.000000 0.000000 -0.029520 -1.086856 -0.312280 0.000000 0.000000 0.000000 1.303112 0.071655 -0.123696 -0.812834 0.076874 0.083535 0.000000 0.000000 0.000000 -0.813225 0.075473 0.080566 0.173975 -0.145744 -0.126233 0.000000 0.000000 0.000000 -0.813225 0.075473 0.080566 0.995268 -13.605455 -11.218930 13.760364 -20.612743 -67.419056 -0.000003 -18.796431 0.000008 0.000000 0.000000 0.000000 -0.813225 0.075473 0.080566 1.793079 9.864636 11.018081 6.610199 27.948554 62.187308 0.000004 12.088191 -0.000008 0.000000 0.000000 0.000000 
0.661282 92.092003 3.525269 0.000000 0.000000 0.000000 0.365420 -1.661891 -0.747949 -15.306842 2.046060 9.173641 32.863161 6.749044 1.758827 -16.459221 2.444162 -12.072704 0.000000 0.000000 0.000000 0.365420 -1.661891 -0.747949 -16.697318 2.229227 -2.928639 31.986517 -0.668772 -3.003669 -15.495700 -1.513626 7.270665 0.000000 0.000000 0.000000 0.365420 -1.661891 -0.747949 0.000000 0.000000 0.000000 1.594548 0.127288 -0.212113 -0.467653 0.134619 -0.012821 0.000000 0.000000 0.000000 -0.468245 0.130839 -0.017873 0.132223 -0.191752 -0.014733 0.000000 0.000000 0.000000 -0.468245 0.130839 -0.017873 1.012076 -14.095811 -11.045086 12.935867 -20.528678 -67.378600 -0.000002 -19.391926 0.000001 0.000000 0.000000 0.000000 -0.468245 0.130839 -0.017873 1.838475 10.195063 11.119192 6.355833 28.999170 61.602835 0.000003 12.344843 0.000003 0.000000 0.000000 0.000000 
0.559988 91.930161 3.114197 0.000000 0.000000 0.000000 0.749348 -2.535619 -1.409637 -16.625990 1.946482 9.947519 34.531739 7.295776 1.909407 -17.087294 2.574668 -12.388285 0.000000 0.000000 0.000000 0.749348 -2.535619 -1.409637 -17.709871 2.950367 -2.064332 31.753850 -0.702780 -2.693355 -14.692427 -1.420102 7.062229 0.000000 0.000000 0.000000 0.749348 -2.535619 -1.409637 0.000000 0.000000 0.000000 1.969948 0.153933 -0.284513 -0.101663 0.160545 -0.115333 0.000000 0.000000 0.000000 -0.102162 0.153621 -0.121393 0.162570 -0.233343 0.141737 0.000000 0.000000 0.000000 -0.102162 0.153621 -0.121393 1.026938 -14.637585 -10.975166 12.099719 -19.932893 -67.040246 0.000003 -19.996496 0.000013 0.000000 0.000000 0.000000 -0.102162 0.153621 -0.121393 1.946486 11.098900 11.250869 6.051349 29.630839 60.787475 -0.000002 13.060257 0.000004 0.000000 0.000000 0.000000 
